<svg width="198" height="76" viewBox="0 0 198 76" fill="none" xmlns="http://www.w3.org/2000/svg">
<path d="M195.643 32.9884H187.549V22.2562C187.549 18.9798 184.614 16.3165 181.009 16.3165H174.316C173.712 16.3165 173.126 16.3974 172.569 16.5384V12.9949C172.569 8.64444 168.672 5.10466 163.882 5.10466H153.754C148.964 5.10466 145.067 8.64444 145.067 12.9949V32.9884H137.862C139.761 28.7001 140.84 24.3929 140.84 20.0726C140.84 9.00557 130.927 0 118.741 0C108.847 0 103.475 4.15294 99 11.0764C94.523 4.15294 89.1534 0 79.2592 0C67.0747 0 57.1598 9.00369 57.1598 20.0726C57.1598 24.3929 58.2387 28.7001 60.1376 32.9884H53.0121V12.9949C53.0121 8.64444 49.1148 5.10466 44.3251 5.10466H34.1969C29.4072 5.10466 25.51 8.64444 25.51 12.9949V16.5554C24.9302 16.4011 24.3172 16.3146 23.6835 16.3146H16.9908C13.3835 16.3146 10.4512 18.9798 10.4512 22.2544V32.9866H2.35655C1.05403 32.9866 0 33.9458 0 35.127V45.4755C0 46.6586 1.0561 47.6159 2.35655 47.6159H10.4512V58.3481C10.4512 61.6246 13.3855 64.2879 16.9908 64.2879H23.6835C24.3172 64.2879 24.9302 64.2014 25.51 64.0471V67.6076C25.51 71.958 29.4072 75.4978 34.1969 75.4978H44.3251C49.1148 75.4978 53.0121 71.958 53.0121 67.6076V47.614H69.4851C77.0994 56.9958 87.3021 66.2628 97.333 75.3737C97.7927 75.7912 98.3974 76 99 76C99.6026 76 100.207 75.7912 100.667 75.3737C110.698 66.2628 120.901 56.9939 128.515 47.614H145.067V67.6076C145.067 71.958 148.964 75.4978 153.754 75.4978H163.882C168.672 75.4978 172.569 71.958 172.569 67.6076V64.0659C173.126 64.207 173.71 64.2879 174.316 64.2879H181.009C184.617 64.2879 187.549 61.6227 187.549 58.3481V47.6159H195.643C196.946 47.6159 198 46.6567 198 45.4755V35.127C198 33.9439 196.944 32.9884 195.643 32.9884ZM4.7131 43.3388V37.2712H10.4512V43.3388H4.7131ZM23.6835 60.0127H16.9908C15.9844 60.0127 15.1643 59.2679 15.1643 58.3538V22.2581C15.1643 21.344 15.9844 20.5992 16.9908 20.5992H23.6835C24.6899 20.5992 25.51 21.344 25.51 22.2581V58.3538C25.51 59.2679 24.6899 60.0127 23.6835 60.0127ZM48.2969 67.6151C48.2969 69.6051 46.5139 71.2226 44.3251 71.2226H34.1969C32.006 71.2226 30.2252 69.6032 30.2252 67.6151V12.9949C30.2252 11.0049 32.0081 9.38738 34.1969 9.38738H44.3251C46.516 9.38738 48.2969 11.0068 48.2969 12.9949V67.6151ZM53.0121 43.3388V37.2712H62.2995C63.4447 39.2987 64.7555 41.3207 66.205 43.3388H53.0121ZM99 70.8389C80.4644 53.9883 61.875 36.6223 61.875 20.0744C61.875 11.3679 69.6736 4.2846 79.2592 4.2846C87.3953 4.2846 91.8454 7.37862 96.8919 16.5497C97.2916 17.2757 98.1075 17.7328 99 17.7328C99.8925 17.7328 100.708 17.2738 101.108 16.5497C106.157 7.3805 110.605 4.2846 118.741 4.2846C128.326 4.2846 136.125 11.3679 136.125 20.0744C136.125 36.6241 117.536 53.9902 99 70.8389ZM131.795 43.3388C133.245 41.3207 134.555 39.2987 135.7 37.2712H145.067V43.3388H131.795ZM163.882 71.2226H153.754C151.563 71.2226 149.782 69.6032 149.782 67.6151V12.9949C149.782 11.0049 151.565 9.38738 153.754 9.38738H163.882C166.073 9.38738 167.856 11.0068 167.856 12.9949V21.3798C167.808 21.6675 167.777 21.9572 167.777 22.2562V58.3519C167.777 58.6509 167.81 58.9425 167.856 59.2284V67.6132C167.856 69.6032 166.073 71.2226 163.882 71.2226ZM182.836 58.3519C182.836 59.266 182.016 60.0108 181.009 60.0108H174.316C173.486 60.0108 172.79 59.5011 172.569 58.8089V21.7973C172.788 21.1052 173.484 20.5954 174.316 20.5954H181.009C182.016 20.5954 182.836 21.3403 182.836 22.2544V58.3519ZM193.287 43.3369H187.549V37.2693H193.287V43.3369ZM125.703 34.8618C125.703 36.0448 124.647 37.0022 123.346 37.0022H112.847C111.698 37.0022 110.716 36.2499 110.524 35.221L109.745 31.0775L106.492 40.5194C106.206 41.3508 105.393 41.9413 104.438 42.0128C103.479 42.0843 102.574 41.6235 102.139 40.8467L100.108 37.2053L96.1444 47.7118C95.8172 48.5789 94.9185 49.1582 93.9142 49.1582C93.8914 49.1582 93.8665 49.1582 93.8417 49.1582C92.8084 49.13 91.9159 48.4924 91.6404 47.5877L87.648 34.4423L86.8693 36.0091C86.4883 36.7765 85.6476 37.2693 84.7199 37.2693H74.6517C73.3492 37.2693 72.2952 36.31 72.2952 35.1289C72.2952 33.9477 73.3513 32.9884 74.6517 32.9884H83.1979L86.0348 27.28C86.4428 26.4581 87.3726 25.9559 88.3665 26.0274C89.3564 26.097 90.193 26.7233 90.456 27.5923L94.1544 39.769L97.4531 31.0229C97.7596 30.2085 98.5734 29.6405 99.5198 29.5803C100.46 29.522 101.357 29.9809 101.785 30.7483L103.719 34.2148L108.165 21.3083C108.49 20.3641 109.491 19.7434 110.574 19.8111C111.661 19.877 112.555 20.6124 112.74 21.5867L114.831 32.7195H123.34C124.643 32.7195 125.697 33.6787 125.697 34.8599L125.703 34.8618Z" fill="#5F0C74"/>
</svg>
